<?xml version="1.0" standalone="no"?>
<!DOCTYPE svg PUBLIC "-//W3C//DTD SVG 20010904//EN"
 "http://www.w3.org/TR/2001/REC-SVG-20010904/DTD/svg10.dtd">
<svg version="1.0" xmlns="http://www.w3.org/2000/svg"
 width="512.000000pt" height="512.000000pt" viewBox="0 0 512.000000 512.000000"
 preserveAspectRatio="xMidYMid meet">
<metadata>
Created by potrace 1.14, written by Peter Selinger 2001-2017
</metadata>
<g transform="translate(0.000000,512.000000) scale(0.100000,-0.100000)"
fill="#000000" stroke="none">
<path d="M2369 5116 c-2 -2 -35 -7 -74 -10 -38 -3 -80 -8 -92 -10 -11 -3 -43
-8 -70 -12 -26 -3 -57 -8 -68 -11 -11 -2 -31 -6 -45 -9 -104 -21 -328 -89
-397 -120 -17 -8 -34 -14 -38 -14 -3 0 -63 -27 -132 -61 -422 -205 -774 -510
-1029 -895 -66 -100 -64 -96 -127 -215 -137 -256 -239 -572 -273 -844 -3 -27
-8 -63 -11 -80 -2 -16 -6 -122 -7 -235 -4 -197 6 -325 34 -490 15 -80 68 -298
80 -325 5 -11 19 -49 31 -85 77 -230 241 -522 416 -740 67 -83 238 -261 321
-332 73 -63 225 -175 313 -229 180 -112 458 -240 598 -275 9 -2 56 -15 105
-29 49 -13 100 -26 115 -29 14 -2 37 -7 51 -10 36 -8 78 -15 135 -22 28 -3 61
-8 75 -11 14 -3 117 -6 230 -8 244 -4 373 9 620 60 204 42 500 159 707 281
210 123 352 233 523 404 124 125 142 145 238 273 277 368 438 773 496 1252 14
110 15 485 1 570 -25 160 -38 233 -60 320 -112 459 -341 864 -675 1195 -58 58
-119 116 -135 130 -396 334 -825 525 -1350 601 -72 10 -498 23 -506 15z"/>
</g>
</svg>
